<svg xmlns="http://www.w3.org/2000/svg" viewBox="241.63 201.15 541.64 622.47">

<path d="M0 0 C2.54030989 2.23453185 5.00930077 4.52853279 7.46875 6.8515625 C8.29246094 7.59921875 9.11617187 8.346875 9.96484375 9.1171875 C31.1727825 29.10095506 42.8852045 59.39398481 43.80126953 88.16601562 C44.10774997 107.54121583 39.39954242 124.71566064 32.25317383 142.59765625 C28.52681828 153.30469467 30.4125764 164.51858425 35.16796875 174.6015625 C39.0681527 182.39996011 43.60106834 189.36682063 49.46875 195.8515625 C50.46455078 196.96917969 50.46455078 196.96917969 51.48046875 198.109375 C73.00451407 220.9463473 104.77665983 232.17375597 135.45068359 234.68457031 C137.41346355 234.84698762 139.37293447 235.04794957 141.33203125 235.25 C148.04673383 235.70982204 148.04673383 235.70982204 154.08984375 233.16796875 C155.61456618 231.76666399 157.10000078 230.32117021 158.5390625 228.83203125 C162.78019161 224.47929348 167.43433068 223.63957935 173.28125 223.2890625 C179.88937665 223.48755441 184.50481613 225.51363095 189.46875 229.8515625 C194.27426925 235.60644095 196.87314538 240.77627546 196.73828125 248.31640625 C195.90266473 256.17604566 192.5750345 261.50719997 186.56640625 266.4765625 C179.98096276 270.79327778 173.11557304 270.64261316 165.46875 269.8515625 C160.86819822 268.52460979 157.51413918 266.58660481 155.0065918 262.42480469 C154.52359619 261.54985352 154.04060059 260.67490234 153.54296875 259.7734375 C151.39209894 256.62820865 150.20528207 255.11486382 146.58813477 253.82177734 C143.11638157 253.32934115 139.72276031 253.10518449 136.21875 252.9765625 C133.69089327 252.79340573 131.1635317 252.60328386 128.63671875 252.40625 C127.40743652 252.31956055 126.1781543 252.23287109 124.91162109 252.14355469 C96.79549321 249.75900718 67.96770311 237.57190911 45.46875 220.8515625 C44.48648437 220.12324219 43.50421875 219.39492188 42.4921875 218.64453125 C32.01710859 210.45626534 23.81122916 201.24547325 17.22265625 189.76171875 C15.50329597 186.90888266 13.60562329 184.40172117 11.46875 181.8515625 C9.13336093 181.81283563 9.13336093 181.81283563 6.46875 182.8515625 C0.97126805 188.77544195 0.10284292 194.27982636 0.19921875 202.19140625 C1.78387637 223.71059747 16.26260121 241.77403283 30.46875 256.8515625 C31.01789063 257.45355469 31.56703125 258.05554688 32.1328125 258.67578125 C47.31689623 274.72004707 67.7041562 284.17883934 87.34765625 293.47387695 C96.34773886 297.74416263 105.21854311 302.11473124 113.81640625 307.15625 C114.50072723 307.5569017 115.18504822 307.95755341 115.8901062 308.37034607 C121.91965585 311.98024674 127.19682733 316.20141144 132.46875 320.8515625 C133.18289063 321.42261719 133.89703125 321.99367188 134.6328125 322.58203125 C142.61486054 329.06937145 147.86926924 337.42888609 152.65625 346.4140625 C152.99688477 347.05327637 153.33751953 347.69249023 153.68847656 348.35107422 C155.15546644 351.15620648 156.49156399 353.90908368 157.66015625 356.85546875 C159.30549258 360.92934579 160.35171134 363.22127812 164.265625 365.4296875 C166.3266611 366.26415577 168.41593766 367.03343197 170.53125 367.71875 C175.41323342 369.60142978 178.56678164 372.4453236 181.21875 376.9140625 C181.62609375 377.58566406 182.0334375 378.25726562 182.453125 378.94921875 C185.02935121 383.77468862 185.12512789 388.51754905 184.46875 393.8515625 C181.95946585 401.53694849 177.67791564 407.10053727 170.5234375 410.87890625 C163.93738387 413.6812075 158.10935983 413.63325647 151.40625 411.3515625 C144.72400894 408.43193718 140.37187708 403.53229657 137.53125 396.8515625 C135.48594152 390.23968477 135.82992681 385.68262516 138.84375 379.5390625 C140.278907 376.86597768 141.78352897 374.37939404 143.46875 371.8515625 C143.6926885 361.32645296 134.92559336 351.51314183 128.46875 343.8515625 C127.80230469 343.03945313 127.13585937 342.22734375 126.44921875 341.390625 C108.74816477 320.65966087 80.54689105 310.15193684 56.50390625 298.42578125 C48.61204539 294.56256109 41.05184074 290.34460209 33.578125 285.734375 C31.23103396 284.3131465 28.92693822 283.05273776 26.46875 281.8515625 C36.98993602 312.43093403 49.07815959 337.3269565 69.01318359 362.82714844 C93.30254261 393.99413958 109.72924665 425.30231058 111.59375 465.0390625 C111.68033221 466.77151735 111.76756675 468.50393973 111.85546875 470.23632812 C112.0674147 474.44106984 112.2705409 478.64615177 112.46875 482.8515625 C113.09579834 483.15102783 113.72284668 483.45049316 114.36889648 483.7590332 C120.0927391 486.73708177 123.5588557 492.90966913 125.46875 498.8515625 C126.2063851 505.4902784 124.69407313 511.5194649 120.9921875 517.0625 C116.33056868 522.78841535 111.7827211 526.33258853 104.3515625 527.2265625 C97.57904515 527.47681718 91.91290744 527.12570365 86.46875 522.8515625 C80.2668751 517.06806805 77.50417678 512.05174449 77.03125 503.5390625 C77.16629936 496.92164367 79.46293534 492.15465553 83.890625 487.2890625 C87.3691399 484.14717808 91.15360592 482.49131725 95.46875 480.8515625 C96.83779086 436.8338001 77.79413696 401.65633678 49.84375 369.2265625 C28.04995233 343.88403338 16.76091229 314.80433658 5.98638916 283.56591797 C-1.99432559 260.43006247 -10.78251987 237.92516492 -21.93505859 216.10498047 C-22.62269287 214.75557373 -22.62269287 214.75557373 -23.32421875 213.37890625 C-23.74598389 212.560271 -24.16774902 211.74163574 -24.60229492 210.89819336 C-25.53125 208.8515625 -25.53125 208.8515625 -25.53125 206.8515625 C-28.58379729 206.55804834 -31.48679445 206.43091234 -34.53125 206.8515625 C-38.52144663 210.43250819 -40.33099022 214.73453057 -40.83203125 220.03125 C-40.9778826 266.02304292 -26.3089448 314.3725032 1.40625 351.1640625 C18.01826911 373.31712422 29.31486758 399.79654344 33.15234375 427.35546875 C34.12949403 434.14160898 34.750463 437.99922586 40.34375 442.2890625 C41.22675781 442.87945313 42.10976563 443.46984375 43.01953125 444.078125 C47.46470231 447.29679751 49.76159449 451.73009598 51.46875 456.8515625 C52.26979272 464.66172906 50.63697811 470.50066452 46.40625 477.0390625 C42.23236224 481.58673126 36.71735503 484.33268809 30.65625 485.30078125 C24.46664329 485.55008485 19.45560279 484.62852484 14.46875 480.8515625 C9.59761467 476.24034941 6.00163743 471.8678509 5.09765625 465.0546875 C4.93348072 457.75370514 5.89837674 452.65974518 10.46875 446.8515625 C13.18673591 444.07921687 16.24012438 442.00397958 19.46875 439.8515625 C18.88949247 432.67768084 17.37991132 426.12135773 15.34375 419.2265625 C15.0331665 418.17057861 14.72258301 417.11459473 14.40258789 416.02661133 C11.81804545 407.50589129 8.62400433 399.7241638 4.46875 391.8515625 C4.01113281 390.94277344 3.55351563 390.03398438 3.08203125 389.09765625 C-1.07354619 381.10799304 -6.12032493 373.66646579 -11.04150391 366.13720703 C-19.08267608 353.80003005 -26.71728408 341.26460697 -34.07543945 328.50756836 C-34.64222412 327.5253833 -35.20900879 326.54319824 -35.79296875 325.53125 C-36.29787842 324.65194824 -36.80278809 323.77264648 -37.32299805 322.86669922 C-38.37555285 320.92631648 -38.37555285 320.92631648 -39.53125 319.8515625 C-40.01722153 321.82906928 -40.49463757 323.808679 -40.96875 325.7890625 C-41.36900391 327.44228516 -41.36900391 327.44228516 -41.77734375 329.12890625 C-43.33206336 336.8058378 -43.73585259 344.4068593 -43.78125 352.2265625 C-43.801875 353.07605469 -43.8225 353.92554688 -43.84375 354.80078125 C-43.9412631 371.64616895 -39.44752938 387.98345628 -35.03125 404.1015625 C-25.94613626 437.5237324 -25.94613626 437.5237324 -26.03125 454.8515625 C-26.03234772 455.517323 -26.03344543 456.1830835 -26.03457642 456.86901855 C-26.09457869 469.67636202 -28.14697181 481.51642837 -31.53125 493.8515625 C-32.00415718 495.67113535 -32.47422709 497.49144805 -32.94140625 499.3125 C-33.77738628 502.55330892 -34.63418041 505.78690607 -35.515625 509.015625 C-36.92418479 514.33564699 -37.65411041 518.94513318 -37.62890625 524.46484375 C-37.62407227 526.3355957 -37.62407227 526.3355957 -37.61914062 528.24414062 C-37.61076172 529.53771484 -37.60238281 530.83128906 -37.59375 532.1640625 C-37.58698242 534.13342773 -37.58698242 534.13342773 -37.58007812 536.14257812 C-37.56830949 539.3789526 -37.5518676 542.61523428 -37.53125 545.8515625 C-36.52348511 546.12963745 -36.52348511 546.12963745 -35.49536133 546.41333008 C-34.6061499 546.66751709 -33.71693848 546.9217041 -32.80078125 547.18359375 C-31.92268799 547.43085205 -31.04459473 547.67811035 -30.13989258 547.93286133 C-21.71448284 550.90008799 -17.3737859 557.1664907 -13.53125 564.8515625 C-12.77594818 573.4794333 -13.90918929 579.79928686 -18.59375 587.0390625 C-23.63604356 592.51655401 -30.18147268 595.13603228 -37.53125 595.4765625 C-44.57016482 595.13275946 -50.44572934 593.02670409 -55.4140625 587.9140625 C-60.39708832 581.55889913 -62.04122051 576.05582193 -61.921875 568 C-61.24297794 562.52808967 -58.9610045 557.12048219 -54.87890625 553.30859375 C-52.88056977 551.14807344 -53.2593995 548.99743304 -53.328125 546.1796875 C-53.49108745 544.31188711 -53.74129948 542.45179274 -54.01953125 540.59765625 C-56.59529734 521.74147551 -52.1940721 503.90828864 -47.46484375 485.7109375 C-40.29685626 455.93089286 -48.98232362 425.81465414 -56.6640625 397.0859375 C-64.31963506 367.98379165 -63.79705088 340.42188262 -58.53125 310.8515625 C-55.15179105 291.73278393 -58.66712749 273.31028719 -62.41757202 254.56965637 C-63.66194962 248.31616256 -64.65634952 242.03816184 -65.50512695 235.71972656 C-66.23681515 230.65314265 -67.30601779 225.49092199 -69.53125 220.8515625 C-72.75268276 218.70394066 -73.7907967 218.2904945 -77.53125 218.8515625 C-82.69917357 224.59942761 -83.36925613 232.88876706 -84.75854492 240.2434082 C-88.3547632 259.15932555 -93.37848952 277.71325285 -99.5625 295.93725586 C-104.09551809 309.30978224 -107.27285996 321.66882045 -107.53125 335.8515625 C-107.57459473 337.16737305 -107.61793945 338.48318359 -107.66259766 339.83886719 C-108.52518124 365.2850651 -108.52518124 365.2850651 -102.53125 389.8515625 C-102.11359375 391.06199219 -102.11359375 391.06199219 -101.6875 392.296875 C-100.61389787 394.10792534 -100.61389787 394.10792534 -98.2109375 394.28515625 C-97.28539062 394.28644531 -96.35984375 394.28773438 -95.40625 394.2890625 C-88.19954407 394.70410839 -83.52345354 397.40859686 -78.71875 402.7265625 C-74.70204386 408.46471413 -72.42629655 413.79002094 -73.53125 420.8515625 C-75.46325854 428.57959665 -78.96985431 433.38634048 -85.53125 437.8515625 C-91.09140621 441.04350403 -96.24808296 441.8426573 -102.53125 440.8515625 C-109.82681819 438.37022099 -114.8494358 434.89904208 -118.4921875 428.04296875 C-120.79586757 422.79100089 -121.47947747 417.51529957 -120.53125 411.8515625 C-119.43601128 409.15468437 -118.18266878 406.69232706 -116.72265625 404.17578125 C-114.58976118 400.01488758 -114.21103924 397.8708249 -115.640625 393.3203125 C-116.17838318 391.99366375 -116.72577628 390.67089177 -117.28125 389.3515625 C-122.64763875 375.74724212 -124.30378969 362.33559415 -125.53125 347.8515625 C-142.73569518 380.98240837 -155.82203064 412.74072431 -145.53125 450.8515625 C-145.25716309 451.8832959 -144.98307617 452.9150293 -144.70068359 453.97802734 C-142.71040519 461.4185429 -140.64272396 468.83590393 -138.54785156 476.24755859 C-137.04123099 481.58875285 -135.56264821 486.93739039 -134.09375 492.2890625 C-133.84713623 493.1754541 -133.60052246 494.0618457 -133.34643555 494.97509766 C-133.11996338 495.79929199 -132.89349121 496.62348633 -132.66015625 497.47265625 C-132.46494385 498.1783374 -132.26973145 498.88401855 -132.06860352 499.61108398 C-130.71549475 505.25282826 -130.39839247 510.58838931 -130.390625 516.35546875 C-130.3723107 517.99936297 -130.35274169 519.6432436 -130.33203125 521.28710938 C-130.30300488 523.85692671 -130.28124777 526.42585724 -130.28076172 528.99584961 C-130.2774256 531.49150692 -130.24289538 533.98516023 -130.203125 536.48046875 C-130.21372955 537.62752037 -130.21372955 537.62752037 -130.22454834 538.79774475 C-130.13342157 542.80036235 -129.75544079 544.58755254 -127.12988281 547.67944336 C-126.27233398 548.39624268 -125.41478516 549.11304199 -124.53125 549.8515625 C-119.67274159 556.59949085 -118.79141941 561.67053734 -119.53125 569.8515625 C-121.28436776 577.56751394 -125.00469375 582.46213349 -131.53125 586.8515625 C-137.44996307 589.94543524 -145.44277513 589.94458962 -151.83984375 588.234375 C-158.54786223 585.27918557 -163.64116669 579.56376962 -166.46875 572.8515625 C-168.64282069 565.88094836 -167.98002743 560.45814446 -164.77734375 554.01953125 C-160.25634044 546.15383583 -154.94637444 543.10081873 -146.53125 539.8515625 C-145.73642147 512.44469715 -151.75162424 489.02254468 -160.91796875 463.40234375 C-161.32088135 462.25886475 -161.32088135 462.25886475 -161.73193359 461.09228516 C-162.24892479 459.64300439 -162.78210024 458.19935188 -163.33447266 456.76318359 C-171.09969645 435.6388538 -169.84511219 408.22849593 -163.53125 386.8515625 C-163.31597656 386.11357422 -163.10070312 385.37558594 -162.87890625 384.61523438 C-156.32146066 363.29427427 -144.48135548 343.3984079 -134.38186646 323.59817505 C-130.42545925 315.82853044 -126.51676283 308.09597573 -123.46875 299.9140625 C-123.14422852 299.04982666 -122.81970703 298.18559082 -122.48535156 297.29516602 C-114.04108995 274.20064391 -101.27981412 239.0410651 -108.3203125 214.05078125 C-109.92824137 210.69376945 -111.42230785 208.9241906 -114.53125 206.8515625 C-116.4816573 206.49990433 -116.4816573 206.49990433 -118.53125 206.5390625 C-119.5521875 206.51392578 -119.5521875 206.51392578 -120.59375 206.48828125 C-123.15250809 206.96804839 -123.84916976 207.88224476 -125.53125 209.8515625 C-127.30868934 213.33478316 -128.63271485 217.01459633 -130.03125 220.6640625 C-130.4648584 221.78901123 -130.8984668 222.91395996 -131.34521484 224.07299805 C-135.16269665 234.28547841 -138.19925767 244.67518148 -141.15625 255.1640625 C-150.105599 286.81100215 -163.23237151 313.61590567 -181.57470703 340.93554688 C-197.91991964 365.29631795 -211.76464303 387.60973709 -212.03125 417.9140625 C-212.45912963 439.56670917 -215.60600461 458.66577548 -224.46875 478.5390625 C-226.41549173 483.09820604 -227.1538509 485.98375979 -225.53125 490.8515625 C-224.850625 491.8621875 -224.17 492.8728125 -223.46875 493.9140625 C-220.13839864 499.30605994 -220.85025545 505.77877606 -221.53125 511.8515625 C-223.18811533 518.05745455 -227.15445163 522.46069359 -232.53125 525.8515625 C-239.65080029 529.1908206 -246.01396415 529.90267761 -253.53125 527.3515625 C-260.27348186 524.44737435 -263.88584578 519.7177505 -267.46875 513.4765625 C-269.46176972 506.67684817 -269.43392568 501.1092913 -266.46875 494.6015625 C-262.76188533 488.00582843 -258.65587981 484.30120553 -251.40625 482.0390625 C-248.13852865 481.17776215 -244.8482773 480.49490054 -241.53125 479.8515625 C-233.2928274 457.61963034 -230.33838101 436.32470578 -228.94921875 412.72265625 C-228.14488795 399.11529335 -226.28071254 386.64125444 -221.53125 373.8515625 C-221.29841309 373.2234668 -221.06557617 372.59537109 -220.82568359 371.94824219 C-213.76722872 353.4670539 -202.39374002 337.07397717 -191.49172974 320.7015686 C-190.98914642 319.94669159 -190.48656311 319.19181458 -189.96875 318.4140625 C-189.46801971 317.66216644 -188.96728943 316.91027039 -188.4513855 316.1355896 C-173.84341741 296.71434788 -173.84341741 296.71434788 -166.53125 274.8515625 C-166.99684326 275.1825293 -167.46243652 275.51349609 -167.94213867 275.85449219 C-186.78821707 289.17810339 -206.21340375 299.81842729 -227.10736084 309.52355957 C-257.33191708 323.59029499 -283.46289159 341.02896835 -295.53125 373.8515625 C-296.54050484 377.4063148 -296.54050484 377.4063148 -296.53125 380.8515625 C-295.0546778 383.14359315 -295.0546778 383.14359315 -292.78125 384.8515625 C-287.41136074 389.76144377 -285.42528228 393.99535223 -285.09375 401.2890625 C-285.31482384 407.7532617 -286.94800822 412.12271002 -291.40234375 416.828125 C-298.06902913 422.9529059 -303.2812229 424.3332927 -312.3046875 424.16015625 C-318.60340709 423.55773634 -322.59726009 421.13770035 -326.84375 416.5390625 C-331.26492748 410.85297048 -333.1432569 405.52104467 -332.87109375 398.3359375 C-331.89293101 391.18523056 -328.0381999 386.85744908 -322.625 382.36328125 C-320.70264571 380.97531276 -318.845448 379.94587149 -316.71875 378.9140625 C-311.31327637 375.41640309 -310.35105613 368.36660453 -308.49072266 362.40820312 C-301.89731303 341.5525179 -289.95936618 325.35411204 -272.34375 312.2890625 C-271.79323975 311.87857666 -271.24272949 311.46809082 -270.67553711 311.04516602 C-258.36564858 302.18074091 -245.52687201 295.83150559 -231.46875 290.2890625 C-217.62694129 284.81252711 -204.34398858 279.0835199 -192.59375 269.7265625 C-192.05782227 269.30044678 -191.52189453 268.87433105 -190.96972656 268.43530273 C-189.48386922 267.24864919 -188.00713721 266.05059363 -186.53125 264.8515625 C-185.85449219 264.32949219 -185.17773438 263.80742187 -184.48046875 263.26953125 C-166.6275265 249.02821869 -154.0678453 224.54580239 -151.18359375 202.15234375 C-150.91254782 195.3997648 -152.80549377 189.26762123 -156.71875 183.7890625 C-157.316875 183.1496875 -157.915 182.5103125 -158.53125 181.8515625 C-162.264462 182.25400974 -162.264462 182.25400974 -165.0859375 184.56640625 C-165.52164063 185.29988281 -165.95734375 186.03335938 -166.40625 186.7890625 C-166.91285156 187.60375 -167.41945313 188.4184375 -167.94140625 189.2578125 C-168.46605469 190.11375 -168.99070312 190.9696875 -169.53125 191.8515625 C-188.91976188 221.37816373 -218.84879331 238.91915761 -252.53125 247.8515625 C-253.26569336 248.04830566 -254.00013672 248.24504883 -254.75683594 248.44775391 C-265.62471626 251.30556825 -276.83278379 253.80113587 -288.109375 253.875 C-294.39504021 253.7738399 -294.39504021 253.7738399 -299.6484375 256.73828125 C-300.81309987 258.30410511 -301.9244658 259.91111355 -302.9765625 261.5546875 C-305.817689 265.75213067 -309.73206373 268.25183374 -314.53125 269.8515625 C-322.11561732 270.53396059 -329.07071133 270.81008388 -335.625 266.5546875 C-340.01380192 262.6335448 -344.20898803 256.88653596 -344.83984375 250.9453125 C-345.14688029 242.38550585 -344.4488262 236.31355571 -338.53125 229.8515625 C-332.75438355 224.75071234 -327.1698425 222.90768785 -319.4921875 223.33203125 C-313.06167398 224.46034035 -307.79869924 227.09437899 -303.65625 232.1640625 C-301.84696467 234.08210268 -300.87488037 234.77784249 -298.2734375 235.3359375 C-294.96917789 235.43007595 -291.82260436 235.18571015 -288.53125 234.8515625 C-287.34571533 234.73264648 -287.34571533 234.73264648 -286.13623047 234.61132812 C-266.92877953 232.58381506 -248.8562528 228.5321579 -231.53125 219.8515625 C-230.92442383 219.54879395 -230.31759766 219.24602539 -229.69238281 218.93408203 C-220.20119516 214.09629102 -212.36417052 208.00570173 -204.53125 200.8515625 C-203.83128906 200.2225 -203.13132812 199.5934375 -202.41015625 198.9453125 C-190.59307469 187.78619762 -181.08205432 170.48333234 -180.03125 154.1015625 C-180.2433819 147.69719933 -182.65629648 141.83678558 -184.8125 135.87646484 C-186.02675535 132.45559735 -187.12676192 129.00053663 -188.21875 125.5390625 C-188.61449219 124.30542969 -189.01023437 123.07179688 -189.41796875 121.80078125 C-192.20423478 112.21239186 -192.90398173 103.02298562 -192.90185547 93.07739258 C-192.90619619 90.81708472 -192.94252763 88.55878827 -192.98046875 86.29882812 C-193.17677857 60.90366435 -183.38415949 34.90684084 -166.53125 15.8515625 C-165.809375 15.00980469 -165.0875 14.16804688 -164.34375 13.30078125 C-122.90254978 -34.11198081 -48.47228576 -41.14160057 0 0 Z " fill="#FFFFFF" transform="translate(586.53125,228.1484375)"/>
</svg>